<svg width="67" height="67" viewBox="0 0 67 67" fill="none" xmlns="http://www.w3.org/2000/svg">
<path d="M32.1038 5.58334C28.0317 5.58334 24.1263 7.20101 21.2468 10.0805C18.3673 12.9599 16.7497 16.8653 16.7497 20.9375C16.7497 25.0097 18.3673 28.9151 21.2468 31.7945C24.1263 34.674 28.0317 36.2917 32.1038 36.2917C36.176 36.2917 40.0814 34.674 42.9609 31.7945C45.8403 28.9151 47.458 25.0097 47.458 20.9375C47.458 16.8653 45.8403 12.9599 42.9609 10.0805C40.0814 7.20101 36.176 5.58334 32.1038 5.58334ZM54.4372 35.5938V39.4351C56.4332 39.9488 58.2115 40.9984 59.6129 42.4278L62.9406 40.5043L65.7323 45.3395L62.4074 47.2601C62.951 49.2163 62.951 51.2837 62.4074 53.2399L65.7323 55.1606L62.9406 59.9957L59.6129 58.0723C58.1918 59.5217 56.4024 60.5564 54.4372 61.0649V64.9063H48.8538V61.0649C46.8886 60.5564 45.0993 59.5217 43.6781 58.0723L40.3476 59.9957L37.556 55.1606L40.8836 53.2399C40.34 51.2837 40.34 49.2163 40.8836 47.2601L37.556 45.3395L40.3476 40.5043L43.6781 42.425C45.0996 40.9765 46.889 39.9429 48.8538 39.4351V35.5938H54.4372ZM46.7573 47.5505C46.3001 48.3768 46.06 49.3056 46.0594 50.25C46.0594 51.2271 46.3134 52.1483 46.7573 52.9496L46.8578 53.1254C47.3539 53.9522 48.0556 54.6364 48.8946 55.1115C49.7336 55.5865 50.6813 55.8362 51.6455 55.8362C52.6097 55.8362 53.5574 55.5865 54.3964 55.1115C55.2355 54.6364 55.9372 53.9522 56.4332 53.1254L56.5337 52.9496C56.9776 52.1483 57.2288 51.2299 57.2288 50.25C57.2288 49.2729 56.9776 48.3517 56.5337 47.5505L56.4304 47.3746C55.9342 46.5485 55.2326 45.8648 54.3939 45.3902C53.5551 44.9156 52.6078 44.6661 51.6441 44.6661C50.6804 44.6661 49.7331 44.9156 48.8944 45.3902C48.0556 45.8648 47.354 46.5485 46.8578 47.3746L46.7573 47.5505ZM36.4644 39.0833C34.0791 42.3172 32.7952 46.2316 32.8018 50.25C32.7952 54.2684 34.0791 58.1828 36.4644 61.4167H5.58301V55.8333C5.58301 51.391 7.34773 47.1305 10.489 43.9893C13.6302 40.8481 17.8906 39.0833 22.333 39.0833H36.4644Z" fill="white"/>
</svg>
