<svg width="104" height="104" viewBox="0 0 104 104" fill="none" xmlns="http://www.w3.org/2000/svg">
<path fill-rule="evenodd" clip-rule="evenodd" d="M92.3999 74.0985C90.7 74.4376 89.0792 75.094 87.6222 76.0331C86.1945 77.5321 84.3917 78.6218 82.4009 79.1892C82.6663 77.4064 83.5499 75.779 84.8846 74.5764C86.0023 72.8697 86.8074 70.9776 87.2621 68.9888C87.2559 66.1615 89.5412 63.864 92.3671 63.8564C95.1933 63.8487 97.491 66.1337 97.5 68.9609C97.509 71.7883 95.2259 74.088 92.3999 74.0985ZM83.0342 61.8343C81.3364 60.7082 79.4515 59.8938 77.4678 59.4293C74.6407 59.4293 72.3489 57.1365 72.3489 54.3082C72.3489 51.4799 74.6407 49.1871 77.4678 49.1871C80.2949 49.1871 82.5868 51.4799 82.5868 54.3082C82.9203 56.0114 83.5684 57.6374 84.4979 59.1031C85.9869 60.5432 87.0654 62.3541 87.6223 64.3494C85.8525 64.0668 84.2359 63.1777 83.0494 61.8344H83.0305L83.0342 61.8343ZM74.6012 43.7853C73.058 30.8536 59.6728 20.7214 43.4779 20.7214C26.2251 20.7214 12.1877 32.2078 12.1877 46.3344C12.464 54.2665 16.6505 61.5463 23.366 65.772C24.4554 66.5752 25.5953 67.3075 26.7787 67.9645L25.3909 73.5067C25.8914 73.7419 26.3767 73.9921 26.8886 74.2085L33.896 70.7033C34.9197 70.9689 35.9966 71.1396 37.0657 71.3217C37.7483 71.443 38.4309 71.5682 39.1325 71.6517C43.5024 72.2029 47.9363 71.9483 52.2143 70.9006C52.3468 72.7973 52.6927 74.673 53.2456 76.4921C50.0437 77.243 46.7665 77.6261 43.4778 77.6339C40.5274 77.6172 37.5868 77.293 34.7036 76.6666L21.9894 83.0169C21.5056 83.2644 20.9602 83.3661 20.4197 83.3096C19.8791 83.253 19.3667 83.0406 18.9446 82.6983C18.5204 82.3583 18.2025 81.904 18.0285 81.389C17.8545 80.8741 17.8315 80.32 17.9624 79.7925L20.2375 70.6276C11.9007 65.3236 6.75015 56.2155 6.5 46.3344C6.5 29.0441 23.0551 15.0312 43.4779 15.0312C62.8692 15.0312 78.7495 27.6785 80.2964 43.7549C79.4058 43.6178 78.5083 43.5292 77.6081 43.4895C76.6033 43.5275 75.5984 43.6222 74.6011 43.7816L74.6012 43.7853ZM62.7897 63.9777C64.4923 63.6362 66.1114 62.9838 67.5674 62.043C68.9971 60.5462 70.8011 59.4591 72.7925 58.8945C72.5212 60.6711 71.6421 62.2987 70.3051 63.4997C69.1865 65.2067 68.3826 67.1035 67.9276 69.0911C67.9318 71.9179 65.6457 74.2134 62.8201 74.2197C59.9944 74.226 57.6983 71.9407 57.6897 69.1139C57.6814 66.2871 59.964 63.9881 62.7897 63.9777ZM72.0114 76.2986C73.7026 77.4329 75.5833 78.2523 77.5627 78.7264C79.6331 78.7264 81.4996 79.9742 82.2919 81.8877C83.0842 83.8012 82.6464 86.004 81.1823 87.4686C80.4666 88.1848 79.5545 88.6726 78.5615 88.8702C77.5684 89.0678 76.5391 88.9664 75.6037 88.5787C73.6909 87.7861 72.4437 85.9188 72.4437 83.8475C72.1176 82.1422 71.4745 80.5132 70.5478 79.0451C69.0643 77.5983 67.9936 75.7821 67.446 73.7836C69.2175 74.0753 70.8319 74.9754 72.0114 76.329V76.2986Z" fill="white"/>
</svg>
