<svg width="97" height="97" viewBox="0 0 97 97" fill="none" xmlns="http://www.w3.org/2000/svg">
<path d="M36.3753 20.2083C35.3034 20.2083 34.2754 20.6342 33.5174 21.3921C32.7595 22.1501 32.3337 23.1781 32.3337 24.25C32.3337 25.3219 32.7595 26.3499 33.5174 27.1079C34.2754 27.8659 35.3034 28.2917 36.3753 28.2917C37.4472 28.2917 38.4753 27.8659 39.2332 27.1079C39.9912 26.3499 40.417 25.3219 40.417 24.25C40.417 23.1781 39.9912 22.1501 39.2332 21.3921C38.4753 20.6342 37.4472 20.2083 36.3753 20.2083ZM24.9374 20.2083C25.7724 17.8418 27.3209 15.7925 29.3695 14.343C31.4181 12.8935 33.8658 12.1151 36.3753 12.1151C38.8848 12.1151 41.3326 12.8935 43.3812 14.343C45.4297 15.7925 46.9782 17.8418 47.8132 20.2083H76.792C77.8639 20.2083 78.8919 20.6342 79.6499 21.3921C80.4078 22.1501 80.8337 23.1781 80.8337 24.25C80.8337 25.3219 80.4078 26.3499 79.6499 27.1079C78.8919 27.8659 77.8639 28.2917 76.792 28.2917H47.8132C46.9782 30.6582 45.4297 32.7075 43.3812 34.157C41.3326 35.6065 38.8848 36.3849 36.3753 36.3849C33.8658 36.3849 31.4181 35.6065 29.3695 34.157C27.3209 32.7075 25.7724 30.6582 24.9374 28.2917H20.2087C19.1367 28.2917 18.1087 27.8659 17.3508 27.1079C16.5928 26.3499 16.167 25.3219 16.167 24.25C16.167 23.1781 16.5928 22.1501 17.3508 21.3921C18.1087 20.6342 19.1367 20.2083 20.2087 20.2083H24.9374ZM60.6253 44.4583C59.5534 44.4583 58.5254 44.8842 57.7674 45.6421C57.0095 46.4001 56.5837 47.4281 56.5837 48.5C56.5837 49.5719 57.0095 50.5999 57.7674 51.3579C58.5254 52.1159 59.5534 52.5417 60.6253 52.5417C61.6972 52.5417 62.7253 52.1159 63.4832 51.3579C64.2412 50.5999 64.667 49.5719 64.667 48.5C64.667 47.4281 64.2412 46.4001 63.4832 45.6421C62.7253 44.8842 61.6972 44.4583 60.6253 44.4583ZM49.1874 44.4583C50.0224 42.0918 51.5709 40.0425 53.6195 38.593C55.6681 37.1435 58.1158 36.3651 60.6253 36.3651C63.1348 36.3651 65.5826 37.1435 67.6311 38.593C69.6797 40.0425 71.2282 42.0918 72.0632 44.4583H76.792C77.8639 44.4583 78.8919 44.8842 79.6499 45.6421C80.4078 46.4001 80.8337 47.4281 80.8337 48.5C80.8337 49.5719 80.4078 50.5999 79.6499 51.3579C78.8919 52.1159 77.8639 52.5417 76.792 52.5417H72.0632C71.2282 54.9082 69.6797 56.9575 67.6311 58.407C65.5826 59.8565 63.1348 60.6349 60.6253 60.6349C58.1158 60.6349 55.6681 59.8565 53.6195 58.407C51.5709 56.9575 50.0224 54.9082 49.1874 52.5417H20.2087C19.1367 52.5417 18.1087 52.1159 17.3508 51.3579C16.5928 50.5999 16.167 49.5719 16.167 48.5C16.167 47.4281 16.5928 46.4001 17.3508 45.6421C18.1087 44.8842 19.1367 44.4583 20.2087 44.4583H49.1874ZM36.3753 68.7083C35.3034 68.7083 34.2754 69.1342 33.5174 69.8921C32.7595 70.6501 32.3337 71.6781 32.3337 72.75C32.3337 73.8219 32.7595 74.8499 33.5174 75.6079C34.2754 76.3659 35.3034 76.7917 36.3753 76.7917C37.4472 76.7917 38.4753 76.3659 39.2332 75.6079C39.9912 74.8499 40.417 73.8219 40.417 72.75C40.417 71.6781 39.9912 70.6501 39.2332 69.8921C38.4753 69.1342 37.4472 68.7083 36.3753 68.7083ZM24.9374 68.7083C25.7724 66.3418 27.3209 64.2925 29.3695 62.843C31.4181 61.3935 33.8658 60.6151 36.3753 60.6151C38.8848 60.6151 41.3326 61.3935 43.3812 62.843C45.4297 64.2925 46.9782 66.3418 47.8132 68.7083H76.792C77.8639 68.7083 78.8919 69.1342 79.6499 69.8921C80.4078 70.6501 80.8337 71.6781 80.8337 72.75C80.8337 73.8219 80.4078 74.8499 79.6499 75.6079C78.8919 76.3659 77.8639 76.7917 76.792 76.7917H47.8132C46.9782 79.1582 45.4297 81.2075 43.3812 82.657C41.3326 84.1065 38.8848 84.8849 36.3753 84.8849C33.8658 84.8849 31.4181 84.1065 29.3695 82.657C27.3209 81.2075 25.7724 79.1582 24.9374 76.7917H20.2087C19.1367 76.7917 18.1087 76.3659 17.3508 75.6079C16.5928 74.8499 16.167 73.8219 16.167 72.75C16.167 71.6781 16.5928 70.6501 17.3508 69.8921C18.1087 69.1342 19.1367 68.7083 20.2087 68.7083H24.9374Z" fill="white"/>
</svg>
