<svg width="78" height="78" viewBox="0 0 78 78" fill="none" xmlns="http://www.w3.org/2000/svg">
<path d="M50.375 45.5H47.8075L46.8975 44.6225C50.1929 40.8007 52.0039 35.9213 52 30.875C52 26.6969 50.7611 22.6126 48.4398 19.1386C46.1186 15.6646 42.8193 12.957 38.9592 11.3581C35.0991 9.75915 30.8516 9.34081 26.7537 10.1559C22.6559 10.971 18.8918 12.983 15.9374 15.9374C12.983 18.8918 10.971 22.6559 10.1559 26.7537C9.34081 30.8516 9.75915 35.0991 11.3581 38.9592C12.957 42.8193 15.6646 46.1186 19.1386 48.4398C22.6126 50.7611 26.6969 52 30.875 52C36.1075 52 40.9175 50.0825 44.6225 46.8975L45.5 47.8075V50.375L61.75 66.5925L66.5925 61.75L50.375 45.5ZM30.875 45.5C22.7825 45.5 16.25 38.9675 16.25 30.875C16.25 22.7825 22.7825 16.25 30.875 16.25C38.9675 16.25 45.5 22.7825 45.5 30.875C45.5 38.9675 38.9675 45.5 30.875 45.5Z" fill="white"/>
</svg>
